# xmcd CD database file
#
# Track frame offsets:
#	150
#	16632
#	34530
#	51658
#	67101
#	81269
#	98574
#	116925
#	135388
#	148577
#	163798
#	181090
#	198149
#	214797
#	232927
#	245433
#	259910
#
# Disc length: 3691 seconds
#
# Revision: 1
# Processed by: cddbd v1.5.2PL0 Copyright (c) Steve Scherf et al.
# Submitted via: CDex 1.77
#
DISCID=e80e6911
DTITLE=Madison Violet - Come As You Are (Live)
DYEAR=2011
DGENRE=Country
TTITLE0=The Ransom
TTITLE1=Come As You Are
TTITLE2=Never Saw The Ending
TTITLE3=Fallen By The Wayside
TTITLE4=Best Part Of Your Love
TTITLE5=Prayed
TTITLE6=Cindy CIndy
TTITLE7=Haight Ashbury
TTITLE8=Emily
TTITLE9=I'm Your Lady
TTITLE10=Baby In The Black and White
TTITLE11=Small Of My Heart
TTITLE12=The Woodshop
TTITLE13=Crying
TTITLE14=If I Could Love You
TTITLE15=No Fool For Trying
TTITLE16=All Apologies
EXTD=YEAR: 2011
EXTT0=
EXTT1=
EXTT2=
EXTT3=
EXTT4=
EXTT5=
EXTT6=
EXTT7=
EXTT8=
EXTT9=
EXTT10=
EXTT11=
EXTT12=
EXTT13=
EXTT14=
EXTT15=
EXTT16=
PLAYORDER=
